<?xml version="1.0" encoding="UTF-8" standalone="no"?>
<!-- Created with Inkscape (http://www.inkscape.org/) -->

<svg
   xmlns:dc="http://purl.org/dc/elements/1.1/"
   xmlns:cc="http://creativecommons.org/ns#"
   xmlns:rdf="http://www.w3.org/1999/02/22-rdf-syntax-ns#"
   xmlns:svg="http://www.w3.org/2000/svg"
   xmlns="http://www.w3.org/2000/svg"
   xmlns:sodipodi="http://sodipodi.sourceforge.net/DTD/sodipodi-0.dtd"
   xmlns:inkscape="http://www.inkscape.org/namespaces/inkscape"
   id="svg2985"
   version="1.1"
   inkscape:version="0.48.4 r9939"
   width="2076.0154"
   height="319.54425"
   viewBox="0 0 2076.0154 319.54425"
   sodipodi:docname="logo.svg"
   inkscape:export-filename="C:\Users\jouni_000\Projektit\omavoiman-kotisivut\src\images\logo.png"
   inkscape:export-xdpi="21.879999"
   inkscape:export-ydpi="21.879999">
  <metadata
     id="metadata2991">
    <rdf:RDF>
      <cc:Work
         rdf:about="">
        <dc:format>image/svg+xml</dc:format>
        <dc:type
           rdf:resource="http://purl.org/dc/dcmitype/StillImage" />
        <dc:title></dc:title>
      </cc:Work>
    </rdf:RDF>
  </metadata>
  <defs
     id="defs2989" />
  <sodipodi:namedview
     pagecolor="#ffffff"
     bordercolor="#666666"
     borderopacity="1"
     objecttolerance="10"
     gridtolerance="10"
     guidetolerance="10"
     inkscape:pageopacity="0"
     inkscape:pageshadow="2"
     inkscape:window-width="1366"
     inkscape:window-height="705"
     id="namedview2987"
     showgrid="false"
     inkscape:zoom="0.45621482"
     inkscape:cx="1277.2416"
     inkscape:cy="9.6899252"
     inkscape:window-x="-8"
     inkscape:window-y="-8"
     inkscape:window-maximized="1"
     inkscape:current-layer="svg2985"
     fit-margin-top="0"
     fit-margin-left="0"
     fit-margin-right="0"
     fit-margin-bottom="0" />
  <rect
     style="fill:#ffffff"
     id="rect3052"
     width="2076.0154"
     height="232.49138"
     x="0"
     y="87.052879" />
  <g
     id="g3003"
     transform="translate(148.86084,-0.57427866)">
    <path
       style="fill:#8e252e"
       d="m 784.5,317.96032 c -37.71977,-5.87628 -67.82844,-34.32804 -82.42168,-77.88595 -7.07391,-21.11419 -10.07662,-47.09205 -8.19128,-70.8664 C 700.19562,89.656236 746.88163,22.120169 808.5055,3.400691 816.6162,0.93690251 819.07215,0.66015705 833.5,0.58421604 847.40647,0.51101928 850.54439,0.8023242 857.48185,2.8105459 891.22766,12.579116 915.86139,37.955596 929.42504,76.922967 931.39127,82.571793 933,87.365292 933,87.575187 c 0,0.209895 -8.63762,0.503844 -19.19472,0.65322 L 894.61056,88.5 l -11.77714,25 c -6.47743,13.75 -13.34302,28.375 -15.25687,32.5 -1.91384,4.125 -8.13509,17.4 -13.82498,29.5 -5.68989,12.1 -14.37072,30.67286 -19.29074,41.27303 -4.92001,10.60016 -9.08347,18.85905 -9.25213,18.35308 -0.32127,-0.96383 5.28055,-121.8466 6.38931,-137.87611 l 0.63983,-9.25 -27.97717,0 -27.97717,0 -35.39175,17.44212 -35.39175,17.44212 41.39718,0.0579 41.39719,0.0579 -0.65217,46.25 c -0.35869,25.4375 -0.93953,58.9625 -1.29076,74.5 l -0.63861,28.25 30.21593,0 30.21592,0 15.30733,-31.25 c 12.68709,-25.90076 45.28032,-92.22842 55.2822,-112.5 l 2.59032,-5.25 9.23074,0 c 7.49475,0 9.34491,0.29748 9.83774,1.58179 1.85544,4.8352 -0.39858,34.5026 -3.98254,52.41821 C 918.72329,255.4175 861.50124,316.10154 801,318.48193 c -5.775,0.22721 -13.2,-0.008 -16.5,-0.52161 z M 19.204958,269.13153 C 11.898493,266.5723 7.0342852,262.3419 3.5,255.47294 l -3,-5.83056 0,-49.07119 c 0,-44.52721 0.16368366,-49.49526 1.767646,-53.65083 3.7369153,-9.68164 9.633298,-14.91161 19.727087,-17.49752 4.995005,-1.27966 11.407996,-1.49477 36.286282,-1.21712 28.644169,0.31967 30.513775,0.45531 35.875671,2.6027 7.494434,3.00145 13.158654,9.14731 15.543024,16.86468 1.62842,5.27062 1.7962,10.31388 1.75742,52.8269 -0.0426,46.70119 -0.0576,47.03708 -2.35252,52.83196 -3.00525,7.58842 -6.85876,11.85895 -13.347331,14.79176 -5.152451,2.3289 -5.915286,2.38113 -38.257279,2.61939 -29.951121,0.22065 -33.48921,0.0718 -38.295042,-1.61158 z M 79,199.5 79,155 l -23.5,0 -23.5,0 0,44.5 0,44.5 23.5,0 23.5,0 0,-44.5 z m 929.1456,69.95917 C 999.02099,266.95135 992.49095,260.827 989.36068,251.84126 987.6486,246.92656 987.5,242.74653 987.5,199.5 l 0,-47 2.35251,-5.83196 c 3.08198,-7.64033 7.00443,-11.95937 13.96589,-15.37795 L 1009.5,128.5 l 33,0 c 30.4188,0 33.4175,0.1548 38.3376,1.97904 7.1816,2.66277 12.3842,7.33964 15.2705,13.72746 l 2.3919,5.2935 0,50 0,50 -2.3118,5.1074 c -2.7333,6.0387 -8.1282,11.5934 -13.6882,14.09377 -3.5503,1.59659 -7.654,1.82305 -36.5,2.01421 -26.0325,0.17252 -33.5655,-0.0775 -37.8544,-1.25621 z m 58.1449,-69.70915 -0.2095,-44.25002 -23.0405,-0.26843 -23.0405,-0.26843 0,44.51843 0,44.51843 23.25,2e-5 23.25,1e-5 -0.2095,-44.25001 z M 207,256.5 l 0,-13.5 8.5,0 8.5,0 0,-43.5 0,-43.5 -8.5,0 -8.5,0 0,-13.53063 0,-13.53064 89.75,0.2885 c 83.06913,0.26702 90.08914,0.42026 94.30601,2.05854 6.40895,2.48992 11.56135,7.06055 14.72842,13.06541 L 408.5,149.5 l 0.29609,46.75 0.29609,46.75 8.45391,0 8.45391,0 0,13.5 0,13.5 -24.5,0 -24.5,0 0,-57 0,-57 -22.5,0 -22.5,0 0,43.46107 0,43.46106 8.75,0.28894 8.75,0.28893 0.27903,13.25 0.27902,13.25 -24.52902,0 -24.52903,0 0,-57 0,-57 -22.5,0 -22.5,0 0,43.5 0,43.5 8.5,0 8.5,0 0,13.5 0,13.5 -33,0 -33,0 0,-13.5 z m 328.88228,12.11942 c -8.60379,-3.07457 -14.55623,-8.4003 -18.01626,-16.11942 -1.808,-4.03352 -2.32438,-7.35104 -2.67144,-17.16291 -0.89236,-25.22808 3.94878,-36.18938 18.36039,-41.57164 5.4895,-2.05014 7.9947,-2.24671 32.69503,-2.56542 L 593,190.85486 593,173.42743 593,156 l -22.5,0 -22.5,0 0,10.5 0,10.5 -15.5,0 -15.5,0 0,-9.31634 c 0,-21.05905 4.21226,-30.2188 16.5,-35.88005 4.90419,-2.25947 5.64191,-2.30361 38.5,-2.30361 32.77654,0 33.58638,0.0481 37.5,2.22748 5.17613,2.88242 6.52125,4.02928 9.74844,8.31152 5.34362,7.0906 5.75156,11.28744 5.75156,59.1711 l 0,43.7899 8.5,0 8.5,0 0,13.5 0,13.5 -51.25,-0.0439 c -39.28024,-0.0336 -52.09494,-0.34584 -54.86772,-1.33669 z M 593,230.5 l 0,-14.5 -22.5,0 -22.5,0 0,14.5 0,14.5 22.5,0 22.5,0 0,-14.5 z m 602,26 0,-13.5 8.5,0 8.5,0 0,-43.5 0,-43.5 -8.5,0 -8.5,0 0,-13.5 0,-13.5 24.5,0 24.5,0 0,57 0,57 8.5,0 8.5,0 0,13.5 0,13.5 -33,0 -33,0 0,-13.5 z m 152,0 0,-13.5 8.5,0 8.5,0 0,-43.5 0,-43.5 -8.5,0 -8.5,0 0,-13.53063 0,-13.53064 89.75,0.2885 c 83.0691,0.26702 90.0891,0.42026 94.306,2.05854 6.409,2.48992 11.5614,7.06055 14.7284,13.06541 l 2.7156,5.14882 0.2961,46.75 0.2961,46.75 8.4539,0 8.4539,0 0,13.5 0,13.5 -24.5,0 -24.5,0 0,-57 0,-57 -22.5,0 -22.5,0 0,43.46107 0,43.46106 8.75,0.28894 8.75,0.28893 0.1428,13.25 0.1429,13.25 -24.3929,0 -24.3928,0 0,-57 0,-57 -22.5,0 -22.5,0 0,43.5 0,43.5 8.5,0 8.5,0 0,13.5 0,13.5 -33,0 -33,0 0,-13.5 z m 330,12.56487 c -8.7445,-2.6696 -17.4327,-10.40945 -19.9119,-17.73838 -1.8583,-5.49373 -2.5609,-26.79035 -1.1509,-34.887 1.9197,-11.02396 5.9869,-16.94659 14.5628,-21.20626 7.0405,-3.49705 13.7444,-4.23323 38.5492,-4.23323 l 23.9508,0 0,-17.5 0,-17.5 -22.5,0 -22.5,0 0,10.5 0,10.5 -15.5,0 -15.5,0 0,-9.31634 c 0,-21.05905 4.2123,-30.2188 16.5,-35.88005 4.9042,-2.25947 5.6419,-2.30361 38.5,-2.30361 l 33.5,0 5.5,3.09312 c 6.3678,3.58114 11.2196,10.54068 12.9396,18.56075 0.6551,3.05459 1.0604,21.55291 1.0604,48.39535 l 0,43.45078 8.5,0 8.5,0 0,13.5 0,13.5 -51.25,-0.086 c -28.1875,-0.0473 -52.375,-0.42941 -53.75,-0.84918 z m 56,-38.56487 0,-14.5 -22.5,0 -22.5,0 0,14.5 0,14.5 22.5,0 22.5,0 0,-14.5 z M 1221.5,105.59952 c -10.0855,-4.44498 -13.6245,-17.503305 -7.0719,-26.09419 3.4978,-4.585833 7.8302,-6.736099 13.5719,-6.736099 13.5103,0 21.4069,14.035219 14.5141,25.796863 -4.1744,7.123076 -13.6299,10.287856 -21.0141,7.033426 z"
       id="path3007"
       inkscape:connector-curvature="0" />
    <path
       style="fill:#040303"
       d="M 24.216966,269.92456 C 11.332681,267.68667 3.5458868,259.81415 1.093167,246.54617 -0.67193302,236.99786 -0.33391979,160.24711 1.511754,151.5 3.2117302,143.44339 6.721099,137.81593 12.52604,133.83801 19.526943,129.04055 23.929272,128.5 56,128.5 c 25.106048,0 30.328714,0.25676 35.063801,1.72381 8.297996,2.57092 13.631939,6.89434 16.773269,13.59554 L 110.5,149.5 l 0,49.5 c 0,46.15721 -0.12773,49.83114 -1.89137,54.40359 -2.53614,6.57527 -7.50981,11.85463 -13.866987,14.7193 -5.10068,2.29847 -6.048429,2.36679 -35.241643,2.54064 -16.5,0.0983 -32.377365,-0.23428 -35.283034,-0.73897 z M 79,200 l 0,-45 -23.5,0 -23.5,0 0,45 0,45 23.5,0 23.5,0 0,-45 z m 930.5,69.37817 c -8.4196,-2.02814 -14.57892,-6.80143 -18.14333,-14.06048 L 988.5,249.5 l 0,-49.5 0,-49.5 2.36327,-5.22705 c 3.02937,-6.70031 9.33783,-12.49147 16.21553,-14.88571 4.8554,-1.69029 8.6041,-1.88684 35.9212,-1.88337 32.7353,0.004 35.8378,0.37676 43.5831,5.23435 4.6103,2.89142 7.8752,7.19024 10.2355,13.47674 1.3584,3.6179 1.6653,10.67787 1.9716,45.34591 0.4149,46.96629 -0.2706,56.84052 -4.4931,64.7197 -3.6567,6.82336 -9.9706,11.10898 -18.574,12.60719 -9.6685,1.6837 -58.6837,1.30652 -66.2231,-0.50959 z m 57.2603,-69.62817 0.2603,-44.75 -24.0103,0 -24.0103,0 0,44.33333 c 0,24.38334 0.3081,44.64143 0.6846,45.01798 0.3766,0.37655 11.0641,0.56405 23.75,0.41667 L 1066.5,244.5 l 0.2603,-44.75 z M 207,257.03893 l 0,-12.96106 8.75,-0.28894 8.75,-0.28893 0.26051,-43.75 0.26051,-43.75 -9.01051,0 -9.01051,0 0,-13.54503 0,-13.54502 89.25,0.29502 89.25,0.29503 5.7077,2.30602 c 6.57274,2.65552 13.5751,9.68589 15.7618,15.82486 1.07108,3.00695 1.46665,14.17516 1.7752,50.11912 l 0.39701,46.25 8.42915,0 8.42914,0 0,13 0,13 -24.51618,0 -24.51618,0 0.26618,-57.00019 0.26618,-57.00018 -22.75,1.8e-4 L 332,156 l 0,44 0,44 8.5,0 8.5,0 0,13 0,13 -24,0 -24,0 0,-57 0,-57 -22.5,0 -22.5,0 0,44 0,44 8.5,0 8.5,0 0,13 0,13 -33,0 -33,0 0,-12.96107 z m 332,12.02931 c -9.24771,-1.8542 -18.31426,-9.38851 -21.24171,-17.65188 -2.42753,-6.85223 -3.20501,-20.17416 -1.83035,-31.36238 1.89942,-15.45903 6.87481,-22.20699 19.44159,-26.36795 5.36452,-1.77624 9.4102,-2.08299 32.38047,-2.45512 L 594,190.80564 594,173.40282 594,156 l -23.46502,0 -23.46501,0 -0.28499,10.25 c -0.15674,5.6375 -0.62248,10.1375 -1.03498,10 C 545.3375,176.1125 538.7,176 531,176 l -14,0 0.0198,-6.75 c 0.0478,-16.30255 3.84106,-28.61829 10.34144,-33.57638 C 534.7771,130.01729 538.60115,129.5 573,129.5 c 30.99724,0 31.57577,0.0373 36.24733,2.33791 5.73802,2.8258 11.02675,8.76018 13.39358,15.02868 1.55174,4.10973 1.79193,9.86074 2.12514,50.88341 l 0.37566,46.25 8.42915,0 8.42914,0 0,13 0,13 -49.75,-0.115 C 564.8875,269.8218 540.925,269.45421 539,269.06824 z M 593.77673,230.25 593.5,215.5 l -23,0 -23,0 -0.27673,14.75 -0.27674,14.75 23.55347,0 23.55347,0 -0.27674,-14.75 z M 1195,257.03893 l 0,-12.96106 8.5249,-0.28894 8.5248,-0.28893 -0.014,-42.25 c -0.01,-23.2375 -0.019,-42.925 -0.025,-43.75 -0.01,-1.21481 -1.6273,-1.5 -8.5112,-1.5 l -8.5,0 0,-13.5 0,-13.5 24.5,0 24.5,0 0,57.5 0,57.5 8.5,0 8.5,0 0,13 0,13 -33,0 -33,0 0,-12.96107 z m 152,0 0,-12.96106 8.75,-0.28894 8.75,-0.28893 0.2605,-43.75 0.2605,-43.75 -9.0105,0 -9.0105,0 0,-13.54525 0,-13.54525 88.75,0.32042 c 79.344,0.28647 89.262,0.49544 93.5808,1.97169 6.306,2.15555 10.605,5.16834 13.7839,9.66002 5.2632,7.43671 5.2607,7.41137 5.6568,56.88837 l 0.3702,46.25 8.4292,0 8.4291,0 0,13 0,13 -24.5,0 -24.5,0 0,-57 0,-57 -22.5,0 -22.5,0 0,44 0,44 8.5,0 8.5,0 0,13 0,13 -24,0 -24,0 0,-57 0,-57 -22.5,0 -22.5,0 0,44 0,44 8.5,0 8.5,0 0,13 0,13 -33,0 -33,0 0,-12.96107 z m 332.5,12.02901 c -9.6579,-1.64602 -18.971,-9.15309 -21.8782,-17.63544 -2.2943,-6.69428 -3.0953,-21.05694 -1.7705,-31.74843 1.8645,-15.04761 7.727,-22.70492 20.1733,-26.34951 4.182,-1.22457 11.6762,-1.71264 31.7254,-2.06612 l 26.25,-0.4628 0,-17.40282 0,-17.40282 -23.5,0 -23.5,0 0,10 0,10 -14,0 c -7.7,0 -14.3375,0.1125 -14.75,0.25 -1.2829,0.42765 -1.4222,-11.3419 -0.2395,-20.24236 2.0613,-15.5124 8.3148,-22.7171 22.2515,-25.63634 5.7349,-1.20123 13.0529,-1.44645 35.238,-1.18076 26.724,0.32004 28.2339,0.44057 33.1324,2.64496 8.799,3.95961 13.8046,11.21706 15.4141,22.34865 0.5023,3.47372 0.9223,25.10335 0.9334,48.06585 l 0.02,41.75 8.5,0 8.5,0 0,13 0,13 -49.25,-0.12517 c -27.0875,-0.0688 -51.05,-0.43194 -53.25,-0.80689 z M 1733.7767,230.25 1733.5,215.5 l -23,0 -23,0 -0.2767,14.75 -0.2768,14.75 23.5535,0 23.5535,0 -0.2768,-14.75 z M 1220.1492,104.30353 c -8.1416,-4.01144 -11.2809,-16.109281 -6.1307,-23.625634 7.3144,-10.674587 22.7254,-10.013438 28.6565,1.229388 1.2787,2.424006 2.325,5.816155 2.325,7.53811 0,4.517184 -3.9549,11.676206 -7.8979,14.296536 -4.1423,2.75282 -11.9787,3.01241 -16.9529,0.5616 z"
       id="path3005"
       inkscape:connector-curvature="0" />
  </g>
</svg>
